<svg width="24.000000" height="24.000000" viewBox="0 0 24 24" fill="none" xmlns="http://www.w3.org/2000/svg" xmlns:xlink="http://www.w3.org/1999/xlink">
	<desc>
			Created with Pixso.
	</desc>
	<defs>
		<clipPath id="clip1_76">
			<rect rx="-0.500000" width="23.000000" height="23.000000" transform="translate(0.500000 0.500000)" fill="white" fill-opacity="0"/>
		</clipPath>
	</defs>
	<rect rx="-0.500000" width="23.000000" height="23.000000" transform="translate(0.500000 0.500000)" fill="#FFFFFF" fill-opacity="0"/>
	<g clip-path="url(#clip1_76)">
		<path d="M15 12C15 13.65 13.65 15 12 15C10.34 15 9 13.65 9 12C9 10.34 10.34 9 12 9C13.65 9 15 10.34 15 12Z" fill="#FFFFFF" fill-opacity="1.000000" fill-rule="evenodd"/>
		<path d="M20 4L16.83 4L15.59 2.64C15.22 2.23 14.68 2 14.12 2L9.88 2C9.32 2 8.78 2.23 8.39 2.64L7.17 4L4 4C2.9 4 2 4.89 2 6L2 18C2 19.1 2.9 20 4 20L20 20C21.1 20 22 19.1 22 18L22 6C22 4.89 21.1 4 20 4ZM12 17C9.24 17 7 14.76 7 12C7 9.23 9.24 7 12 7C14.76 7 17 9.23 17 12C17 14.76 14.76 17 12 17Z" fill="#FFFFFF" fill-opacity="1.000000" fill-rule="nonzero"/>
	</g>
</svg>
